# xmcd CD database file
#
# Track frame offsets:
#	150
#	23207
#	45927
#	64638
#	82761
#	103291
#	124342
#	143323
#	166834
#	189118
#	217800
#	239546
#	261478
#	284068
#	301736
#	324170
#
# Disc length: 4370 seconds
#
# Revision: 0
# Processed by: cddbd v1.5.2PL0 Copyright (c) Steve Scherf et al.
# Submitted via: CDex 1.81
#
DISCID=d0111010
DTITLE=Jamey Aebersold - Volume 129 - A Jazzy Christmas
DYEAR=2011
DGENRE=Jazz
TTITLE0=Frosty The Snowman
TTITLE1=Here Comes Santa Claus
TTITLE2=Up On The Housetop
TTITLE3=Jingle Bell Rock
TTITLE4=Over The River And Through The Woods
TTITLE5=Angels We Have Heard On High
TTITLE6=All I Want For Christmas Is My Two Front Teeth
TTITLE7=There's A Song In The Air
TTITLE8=We Wish You A Merry Christmas
TTITLE9=Home For The Holidays
TTITLE10=Jingle Bells
TTITLE11=Angels From The Realms Of Glory
TTITLE12=Snowfall
TTITLE13=Jolly Old Saint Nick
TTITLE14=Jolly Old Saint Nick (shuffle)
TTITLE15=Tuning Notes
EXTD=YEAR: 2011
EXTT0=
EXTT1=
EXTT2=
EXTT3=
EXTT4=
EXTT5=
EXTT6=
EXTT7=
EXTT8=
EXTT9=
EXTT10=
EXTT11=
EXTT12=
EXTT13=
EXTT14=
EXTT15=
PLAYORDER=
